<svg version="1.2" xmlns="http://www.w3.org/2000/svg" viewBox="0 0 24 24" width="24" height="24"><defs><linearGradient id="P" gradientUnits="userSpaceOnUse"/><linearGradient id="g1" x2="1" href="#P" gradientTransform="matrix(17.197,-18.626,18.884,17.435,2.25,20.25)"><stop stop-color="#051a3f"/><stop offset=".53" stop-color="#1e3860"/><stop offset="1" stop-color="#4d85b0"/></linearGradient></defs><style>.a{fill:url(#g1)}</style><path fill-rule="evenodd" class="a" d="m7.5 6.8v-1.5c0-0.9 0.7-1.5 1.5-1.5h6c0.8 0 1.5 0.6 1.5 1.5v1.5h3.8c0.8 0 1.5 0.6 1.5 1.5v1.3c0 0.7-0.3 1.3-0.8 1.7v7.5c0 0.8-0.7 1.5-1.5 1.5h-15c-0.8 0-1.5-0.7-1.5-1.5v-7.5c-0.5-0.4-0.7-1-0.7-1.7v-1.3c0-0.9 0.6-1.5 1.5-1.5zm1.5 0h6v-1.5h-6zm-5.3 1.5v1.3c0 0.3 0.1 0.6 0.4 0.7l6 3.5c1.1 0.7 2.6 0.7 3.7 0l6-3.5c0.3-0.1 0.4-0.4 0.4-0.7v-1.3zm0.7 3.9v6.6h2.3v-5.2zm11.3 6.5l-0.1-4.4-1.1 0.7c-1.6 0.9-3.6 0.9-5.2 0l-1.2-0.7v4.4zm1.5 0h2.3v-6.5l-2.3 1.3z"/></svg>