<svg version="1.2" xmlns="http://www.w3.org/2000/svg" viewBox="0 0 24 24" width="24" height="24"><defs><linearGradient id="P" gradientUnits="userSpaceOnUse"/><linearGradient id="g1" x2="1" href="#P" gradientTransform="matrix(20.357,-21.527,23.017,21.766,.75,21.75)"><stop stop-color="#051a3f"/><stop offset=".53" stop-color="#1e3860"/><stop offset="1" stop-color="#4d85b0"/></linearGradient></defs><style>.a{fill:url(#g1)}</style><path fill-rule="evenodd" class="a" d="m14.3 2.3c0.3 0 0.7 0.2 0.7 0.6v0.1 2.3h0.7c2.3 0 4.2 0.7 4.9 3.7h1.1c0.9 0 1.5 0.7 1.5 1.5v1.9c0 1.1-0.3 2.6-1.5 3.7l-0.6 0.7c-0.6 0.5-0.8 0.9-0.8 2.5l-0.1 2.5h-4.5l-1.1-2.3h-5.4l-1.7 2.3h-2.3c-1.1 0-2.1-1-2.2-2.2v-0.1-2.1c-1.2-1.2-2.1-2.9-2.2-4.7q0-0.4-0.1-0.7c0-4.6 3.7-8.3 8.3-8.3h1.7q1.1-1.4 3.5-1.4zm-0.7 4.5v-3c-1.5 0.2-2.2 1.2-2.2 2.9l-0.1 0.1-1.4-0.1q0-0.8 0.2-1.5l-1 0.1h-0.2c-3.6 0.1-6.6 3-6.6 6.7l0.1 0.3v0.2 0.4l0.1 0.2v0.3l0.1 0.4 0.1 0.2 0.1 0.3 0.1 0.1 0.1 0.3 0.1 0.2q0.6 1.1 1.5 1.8v2.8c0 0.4 0.3 0.7 0.7 0.7v0.1h1.5l1.7-2.3h0.2 0.4 6.6l1.1 2.3h2v-0.8c0-1.7 0.3-2.6 0.9-3.4l0.1-0.1 0.2-0.2 0.8-0.7c0.6-0.7 1-1.6 1-2.5v-0.2-1.9h-2.2l-0.3-1.1c-0.5-1.9-1.3-2.5-3-2.6h-0.5zm3.4 3.7c0.6 0 1.1 0.5 1.1 1.1 0 0.6-0.5 1.2-1.1 1.2-0.6 0-1.1-0.6-1.1-1.2 0-0.6 0.5-1.1 1.1-1.1zm-8.6-3.7v1.5c-1.7 0.4-3 1.9-3 3.7h-1.5c0-2.6 2-4.8 4.5-5.2z"/></svg>