<svg version="1.2" xmlns="http://www.w3.org/2000/svg" viewBox="0 0 24 24" width="24" height="24"><defs><linearGradient id="P" gradientUnits="userSpaceOnUse"/><linearGradient id="g1" x2="1" href="#P" gradientTransform="matrix(15.209,-19.514,20.427,15.92,1.5,19.5)"><stop stop-color="#051a3f"/><stop offset=".53" stop-color="#1e3860"/><stop offset="1" stop-color="#4d85b0"/></linearGradient></defs><style>.a{fill:url(#g1)}</style><path fill-rule="evenodd" class="a" d="m22.5 16.5c0 1.7-1.3 3-3 3h-15c-1.7 0-3-1.3-3-3v-9c0-1.7 1.3-3 3-3h15c1.7 0 3 1.3 3 3zm-1.5-4.5h-18v4.5c0 0.8 0.6 1.4 1.3 1.5h0.2 15c0.8 0 1.4-0.6 1.5-1.3v-0.2zm-1.5 3v1.5h-4.5v-1.5zm0-9h-15c-0.8 0-1.4 0.6-1.5 1.3v0.2 1.5h18v-1.5c0-0.8-0.6-1.4-1.3-1.5z"/></svg>