<svg width="137" height="30" viewBox="0 0 137 30" fill="none" xmlns="http://www.w3.org/2000/svg"><path d="M40.9059 0.655984C40.3905 0.140561 39.594 0.140561 39.0785 0.655984L38.3288 1.40569C37.8134 1.92112 37.8134 2.71768 38.3288 3.2331L50.1836 15.1347L38.3288 27.0363C37.8134 27.5517 37.8134 28.3483 38.3288 28.8637L39.0785 29.6134C39.594 30.1289 40.3905 30.1289 40.9059 29.6134L55.3378 15.1347L40.9059 0.655984Z" fill="#FAA74A"></path><path d="M131.058 2.71769C131.058 1.17142 132.23 0 133.776 0C135.322 0 136.494 1.17142 136.494 2.71769C136.494 4.26396 135.322 5.43538 133.776 5.43538C132.23 5.43538 131.058 4.26396 131.058 2.71769ZM136.166 2.71769C136.166 1.31199 135.182 0.327997 133.776 0.327997C132.37 0.327997 131.386 1.35884 131.386 2.71769C131.386 4.12339 132.37 5.10738 133.776 5.10738C135.135 5.15424 136.166 4.07653 136.166 2.71769ZM133.307 4.07653H132.932V1.26513C133.12 1.21827 133.354 1.21827 133.588 1.21827C134.291 1.21827 134.713 1.54627 134.713 2.15541C134.713 2.62398 134.385 2.90512 134.057 2.99883L134.994 4.12339H134.572L133.729 3.09254H133.354L133.307 4.07653ZM133.307 2.76455H133.635C134.01 2.76455 134.338 2.57712 134.338 2.15541C134.338 1.78055 134.057 1.59313 133.588 1.59313C133.495 1.59313 133.354 1.59313 133.26 1.59313L133.307 2.76455Z" fill="#1E3860"></path><path d="M120.281 13.4479C120.281 13.4479 118.922 13.1199 118.173 12.8387C115.783 11.9953 113.581 10.7302 113.581 8.4342C113.581 5.76337 115.877 3.93595 119.344 3.93595C121.64 3.93595 123.421 4.59195 124.686 5.85708L125.107 6.27879C125.623 6.79421 126.419 6.79421 126.935 6.27879L127.685 5.52908C128.2 5.01366 128.2 4.21709 127.685 3.70167C127.497 3.46739 127.263 3.27996 127.263 3.27996C125.248 1.35883 122.483 0.327987 119.344 0.327987C116.486 0.327987 114.19 1.07769 112.269 2.67082C110.441 4.21709 109.551 6.13822 109.551 8.48105C109.551 14.1976 114.893 15.6033 119.578 16.8684L119.719 16.9153C123.842 17.8993 125.904 19.5392 125.904 21.7884C125.904 24.6466 123.514 26.3335 119.578 26.3335C117.095 26.3335 114.893 25.49 113.393 23.9906L112.972 23.5689C112.456 23.0535 111.66 23.0535 111.144 23.5689L110.254 24.4592C109.738 24.9746 109.738 25.7712 110.254 26.2866L110.676 26.7083C112.831 28.8169 115.924 29.9883 119.578 29.9883C122.624 29.9883 125.107 29.2386 127.075 27.6923C128.997 26.2397 129.934 24.2249 129.934 21.7415C130.027 16.4467 125.435 14.6193 120.281 13.4479Z" fill="#1E3860"></path><path d="M86.9661 0.281143C78.7661 0.281143 72.1593 6.9348 72.1593 15.1347C72.1593 23.3347 78.7661 29.9883 86.9661 29.9883C95.166 29.9883 101.773 23.3347 101.773 15.1347C101.773 6.9348 95.1191 0.281143 86.9661 0.281143ZM86.9661 3.93597C93.1511 3.93597 98.1648 8.94964 98.1648 15.1347C98.1648 21.3198 93.1511 26.3335 86.9661 26.3335C80.781 26.3335 75.7673 21.3198 75.7673 15.1347C75.7673 8.94964 80.781 3.93597 86.9661 3.93597Z" fill="#1E3860"></path><path d="M67.1924 28.8637L66.4427 29.6134C65.9273 30.1289 65.1308 30.1289 64.6153 29.6134L54.5412 19.5392L57.1183 16.9621L67.1924 27.0363C67.7079 27.5049 67.7079 28.3483 67.1924 28.8637Z" fill="#1E3860"></path><path d="M67.1924 1.40569L66.4427 0.655984C65.9273 0.140561 65.1308 0.140561 64.6153 0.655984L54.5412 10.7302L57.1183 13.3073L67.1924 3.2331C67.7079 2.76454 67.7079 1.92112 67.1924 1.40569Z" fill="#1E3860"></path><path d="M26.0055 15.1816C25.9586 21.3198 20.9449 26.3335 14.8067 26.3335C8.62164 26.3335 3.60797 21.3198 3.60797 15.1347C3.60797 8.94964 8.66849 3.93597 14.8067 3.93597C20.9449 3.93597 25.9586 8.90278 26.0055 15.0879V15.1816ZM28.3483 0.281143H27.2706C26.5678 0.281143 25.9586 0.843424 25.9586 1.59313V5.38853C23.2878 2.24913 19.305 0.281143 14.8067 0.281143C6.6068 0.281143 0 6.9348 0 15.1347C0 23.3347 6.65365 29.9883 14.8067 29.9883C19.2581 29.9883 23.2878 28.0203 26.0055 24.8809V28.6763C26.0055 29.3792 26.5678 29.9883 27.3175 29.9883H28.3952C29.098 29.9883 29.7072 29.426 29.7072 28.6763V1.59313C29.6603 0.890281 29.098 0.281143 28.3483 0.281143Z" fill="#1E3860"></path></svg>