<svg width="69" height="12" viewBox="0 0 69 12" fill="none" xmlns="http://www.w3.org/2000/svg">
   <path
      d="M6.38098 0L7.72807 4.1459H12.0873L8.56061 6.7082L9.90769 10.8541L6.38098 8.2918L2.85427 10.8541L4.20135 6.7082L0.674643 4.1459H5.0339L6.38098 0Z"
      fill="white"></path>
   <path
      d="M20.5239 0L21.8709 4.1459H26.2302L22.7035 6.7082L24.0506 10.8541L20.5239 8.2918L16.9972 10.8541L18.3442 6.7082L14.8175 4.1459H19.1768L20.5239 0Z"
      fill="white"></path>
   <path
      d="M34.6667 0L36.0138 4.1459H40.373L36.8463 6.7082L38.1934 10.8541L34.6667 8.2918L31.14 10.8541L32.4871 6.7082L28.9603 4.1459H33.3196L34.6667 0Z"
      fill="white"></path>
   <path
      d="M48.8096 0L50.1567 4.1459H54.5159L50.9892 6.7082L52.3363 10.8541L48.8096 8.2918L45.2829 10.8541L46.6299 6.7082L43.1032 4.1459H47.4625L48.8096 0Z"
      fill="white"></path>
   <path d="M62.9526 0L61.6055 4.1459H57.2462L60.7729 6.7082L59.4258 10.8541L62.9526 8.2918V0Z" fill="white"></path>
   <path opacity="1" d="M62.9522 0L64.2993 4.1459H68.6586L65.1319 6.7082L66.4789 10.8541L62.9522 8.2918V0Z"
      fill="white"></path>
</svg>